nColumns=19
nRows=89
DataType=double
version=3
OpenSimVersion=4.1
endheader
time	ground_force_1_vx	ground_force_1_vy	ground_force_1_vz	ground_force_1_px	ground_force_1_py	ground_force_1_pz	ground_force_1_mx	ground_force_1_my	ground_force_1_mz	ground_force_2_vx	ground_force_2_vy	ground_force_2_vz	ground_force_2_px	ground_force_2_py	ground_force_2_pz	ground_force_2_mx	ground_force_2_my	ground_force_2_mz
0.5	-3.89929	21.3869	-2.1463	1.02776	0	-0.163811	0	-5.172	0	0	0	0	-0.00076621	0	6.83175e-05	0	0	0
0.508333	-8.5074	58.3323	-5.54919	1.00623	0	-0.218088	0	-4.40824	0	0	0	0	-0.00076621	0	6.83175e-05	0	0	0
0.516667	-11.2937	150.361	-10.9383	1.00339	0	-0.238564	-0	0.757007	-0	0	0	0	-0.00076621	0	6.83174e-05	0	0	0
0.525	-10.6582	335.284	-16.4957	1.00059	0	-0.247914	-0	8.26313	-0	0	0	0	-0.00076621	0	6.83173e-05	0	0	0
0.533333	-13.5835	622.307	-17.6199	0.995705	0	-0.253131	-0	12.1957	-0	0	0	0	-0.00076621	0	6.83171e-05	0	0	0
0.541667	-33.6625	947.257	-10.1869	0.991037	0	-0.256375	-0	7.7284	-0	0	0	0	-0.00076621	0	6.83168e-05	0	0	0
0.55	-79.0772	1203.62	4.23025	0.987435	0	-0.258611	0	-3.28494	0	0	0	0	-0.00076621	0	6.83165e-05	0	0	0
0.558333	-139.49	1351.56	17.4133	0.98345	0	-0.260547	0	-12.7944	0	0	0	0	-0.00076621	0	6.83162e-05	0	0	0
0.566667	-189.396	1445.68	21.3924	0.975654	0	-0.262478	0	-14.0741	0	0	0	0	-0.00076621	0	6.83158e-05	0	0	0
0.575	-210.327	1546.57	16.3424	0.962306	0	-0.263984	0	-8.34077	0	0	0	0	-0.00076621	0	6.83153e-05	0	0	0
0.583333	-203.93	1661.16	9.12932	0.94569	0	-0.26431	0	-2.48734	0	0	0	0	-0.00076621	0	6.83148e-05	0	0	0
0.591667	-184.045	1760.34	4.08606	0.928593	0	-0.263578	0	-0.789191	0	0	0	0	-0.00076621	0	6.83142e-05	0	0	0
0.6	-156.783	1818.7	-1.16565	0.911248	0	-0.262763	0	-1.1703	0	0	0	0	-0.00076621	0	6.83136e-05	0	0	0
0.608333	-123.016	1830.39	-9.62841	0.893262	0	-0.262459	-0	0.0051	-0	0	0	0	-0.000766211	0	6.83129e-05	0	0	0
0.616667	-88.4186	1800.63	-18.7043	0.875528	0	-0.26231	-0	2.37075	-0	0	0	0	-0.000766211	0	6.83122e-05	0	0	0
0.625	-57.9446	1739.15	-23.2793	0.858753	0	-0.26157	-0	2.93844	-0	0	0	0	-0.000766211	0	6.83114e-05	0	0	0
0.633333	-29.906	1653.13	-22.6411	0.84269	0	-0.260257	-0	1.20928	-0	0	0	0	-0.000766211	0	6.83105e-05	0	0	0
0.641667	-0.515381	1544.87	-20.3606	0.826653	0	-0.259246	0	-0.185149	0	0	0	0	-0.000766211	0	6.83096e-05	0	0	0
0.65	28.5858	1418.18	-17.9906	0.810383	0	-0.259127	-0	0.182551	-0	0	0	0	-0.000766212	0	6.83087e-05	0	0	0
0.658333	54.3884	1282.83	-12.8255	0.794095	0	-0.259519	-0	0.357058	-0	0	0	0	-0.000766212	0	6.83077e-05	0	0	0
0.666667	78.9255	1148.73	-2.85503	0.777403	0	-0.259719	0	-1.77322	0	0	0	0	-0.000766212	0	6.83066e-05	0	0	0
0.675	102.545	1016.5	9.1786	0.759469	0	-0.259872	0	-5.0542	0	0	0	0	-0.000766212	0	6.83055e-05	0	0	0
0.683333	121.135	882.027	18.6792	0.740131	0	-0.260717	0	-6.58665	0	0	0	0	-0.000766213	0	6.83044e-05	0	0	0
0.691667	130.576	747.074	24.29	0.720003	0	-0.262297	0	-5.6693	0	0	0	0	-0.000766213	0	6.83031e-05	0	0	0
0.7	130.677	619.388	27.9519	0.699861	0	-0.263575	0	-4.40465	0	0	0	0	-0.000766213	0	6.83019e-05	0	0	0
0.708333	123.757	503.916	30.8056	0.680333	0	-0.263405	0	-4.49858	0	0	0	0	-0.000766214	0	6.83006e-05	0	0	0
0.716667	110.159	399.415	31.2864	0.662385	0	-0.261818	0	-5.06548	0	0	0	0	-0.000766214	0	6.82992e-05	0	0	0
0.725	91.2407	303.529	27.6895	0.647004	0	-0.259712	0	-4.24166	0	0	0	0	-0.000766214	0	6.82978e-05	0	0	0
0.733333	70.7527	217.677	21.037	0.635313	0	-0.257245	0	-1.90541	0	0	0	0	-0.000766215	0	6.82963e-05	0	0	0
0.741667	52.9564	146.578	14.285	0.629144	0	-0.252186	-0	0.243829	-0	0	0	0	-0.000766215	0	6.82948e-05	0	0	0
0.75	39.0672	93.1434	9.33253	0.63305	0	-0.240342	-0	0.895591	-0	0	0	0	-0.000766215	0	6.82932e-05	0	0	0
0.758333	27.3298	55.4717	5.92647	0.65628	0	-0.219127	-0	0.364003	-0	0	0	0	-0.000766216	0	6.82915e-05	0	0	0
0.766667	16.7364	30.0395	3.31243	0.713895	0	-0.187201	0	-0.440101	0	0	0	0	-0.000766216	0	6.82899e-05	0	0	0
0.775	8.06204	14.5839	1.68748	-0.000766221	0	6.82951e-05	0	0	0	0	0	0	-0.000766216	0	6.82881e-05	0	0	0
0.783333	0	0	0	-0.000766221	0	6.82938e-05	0	0	0	0	0	0	-0.000766217	0	6.82864e-05	0	0	0
0.791667	0	0	0	-0.000766222	0	6.82924e-05	0	0	0	0	0	0	-0.000766217	0	6.82845e-05	0	0	0
0.8	0	0	0	-0.000766223	0	6.8291e-05	0	0	0	0	0	0	-0.000766218	0	6.82826e-05	0	0	0
0.808333	0	0	0	-0.000766223	0	6.82895e-05	0	0	0	0	0	0	-0.000766218	0	6.82807e-05	0	0	0
0.816667	0	0	0	-0.000766224	0	6.8288e-05	0	0	0	0	0	0	-0.000766219	0	6.82787e-05	0	0	0
0.825	0	0	0	-0.000766225	0	6.82864e-05	0	0	0	0	0	0	-0.000766219	0	6.82767e-05	0	0	0
0.833333	0	0	0	-0.000766226	0	6.82849e-05	0	0	0	0	0	0	-0.00076622	0	6.82746e-05	0	0	0
0.841667	0	0	0	-0.000766226	0	6.82832e-05	0	0	0	0	0	0	-0.00076622	0	6.82725e-05	0	0	0
0.85	0	0	0	-0.000766227	0	6.82816e-05	0	0	0	0	0	0	-0.000766221	0	6.82703e-05	0	0	0
0.858333	0	0	0	-0.000766228	0	6.82799e-05	0	0	0	-2.05645	10.8506	-1.55505	-0.000766221	0	6.82681e-05	0	0	0
0.866667	0	0	0	-0.000766229	0	6.82782e-05	0	0	0	-4.08594	27.303	-4.35838	1.00998	0	-0.240847	0	-2.6034	0
0.875	0	0	0	-0.00076623	0	6.82764e-05	0	0	0	-6.54417	70.2978	-8.53289	0.985479	0	-0.281571	0	-0.379442	0
0.883333	0	0	0	-0.000766231	0	6.82746e-05	0	0	0	-7.25688	161.969	-13.5846	0.976954	0	-0.298605	-0	2.43673	-0
0.891667	0	0	0	-0.000766232	0	6.82728e-05	0	0	0	-6.72129	325.808	-17.3843	0.969362	0	-0.303879	-0	3.30332	-0
0.9	0	0	0	-0.000766233	0	6.82709e-05	0	0	0	-12.4575	560.181	-17.7935	0.962414	0	-0.30371	-0	0.647334	-0
0.908333	0	0	0	-0.000766233	0	6.8269e-05	0	0	0	-31.2217	809.68	-15.415	0.957099	0	-0.30173	0	-3.33578	0
0.916667	0	0	0	-0.000766234	0	6.82671e-05	0	0	0	-64.6862	997.79	-13.9361	0.952696	0	-0.300124	0	-3.90023	0
0.925	0	0	0	-0.000766235	0	6.82651e-05	0	0	0	-106.843	1107.49	-15.9499	0.94764	0	-0.300237	-0	0.877178	-0
0.933333	0	0	0	-0.000766236	0	6.82631e-05	0	0	0	-142.191	1189.89	-18.2671	0.939861	0	-0.301856	-0	6.59248	-0
0.941667	0	0	0	-0.000766237	0	6.82611e-05	0	0	0	-159.474	1292.51	-14.1564	0.928641	0	-0.303109	-0	6.4672	-0
0.95	0	0	0	-0.000766238	0	6.8259e-05	0	0	0	-158.078	1416.15	-1.76215	0.914713	0	-0.303091	0	-0.671486	0
0.958333	0	0	0	-0.000766239	0	6.82569e-05	0	0	0	-143.44	1532.02	12.3931	0.898833	0	-0.303019	0	-8.33006	0
0.966667	0	0	0	-0.00076624	0	6.82548e-05	0	0	0	-121.504	1617.05	20.8268	0.881852	0	-0.304122	0	-9.68442	0
0.975	0	0	0	-0.000766242	0	6.82526e-05	0	0	0	-95.765	1670.89	24.0118	0.864356	0	-0.306091	0	-5.44764	0
0.983333	0	0	0	-0.000766243	0	6.82504e-05	0	0	0	-69.189	1703.19	28.59	0.846941	0	-0.307727	0	-2.25375	0
0.991667	0	0	0	-0.000766244	0	6.82482e-05	0	0	0	-42.836	1717.31	37.579	0.829842	0	-0.308505	0	-4.01138	0
1	0	0	0	-0.000766245	0	6.8246e-05	0	0	0	-15.3029	1707.81	46.3032	0.812737	0	-0.309227	0	-7.72513	0
1.00833	0	0	0	-0.000766246	0	6.82437e-05	0	0	0	13.4573	1669.59	49.0044	0.795306	0	-0.310692	0	-8.50975	0
1.01667	0	0	0	-0.000766247	0	6.82414e-05	0	0	0	40.8297	1607.02	45.8752	0.777736	0	-0.312416	0	-6.00434	0
1.025	0	0	0	-0.000766248	0	6.8239e-05	0	0	0	64.5351	1529.37	40.982	0.760573	0	-0.313279	0	-3.68273	0
1.03333	0	0	0	-0.000766249	0	6.82366e-05	0	0	0	87.2548	1440.53	35.6379	0.743527	0	-0.312942	0	-3.33563	0
1.04167	0	0	0	-0.000766251	0	6.82342e-05	0	0	0	112.225	1337.46	27.3537	0.725615	0	-0.312135	0	-3.04806	0
1.05	0	0	0	-0.000766252	0	6.82318e-05	0	0	0	137.962	1217.85	14.8944	0.706351	0	-0.311547	0	-0.754097	0
1.05833	0	0	0	-0.000766253	0	6.82293e-05	0	0	0	160.203	1085.24	1.21013	0.686234	0	-0.310895	-0	2.56013	-0
1.06667	0	0	0	-0.000766254	0	6.82268e-05	0	0	0	175.414	946.614	-9.69001	0.666332	0	-0.309486	-0	4.41013	-0
1.075	0	0	0	-0.000766256	0	6.82243e-05	0	0	0	181.937	807.14	-16.7942	0.647159	0	-0.3074	-0	4.19607	-0
1.08333	0	0	0	-0.000766257	0	6.82218e-05	0	0	0	178.019	668.511	-21.5571	0.628413	0	-0.305554	-0	3.46386	-0
1.09167	0	0	0	-0.000766258	0	6.82192e-05	0	0	0	162.814	534.013	-24.5006	0.610201	0	-0.304576	-0	3.24604	-0
1.1	0	0	0	-0.000766259	0	6.82166e-05	0	0	0	138.905	410.194	-24.2687	0.59396	0	-0.303976	-0	2.67797	-0
1.10833	0	0	0	-0.000766261	0	6.8214e-05	0	0	0	111.509	301.75	-20.0843	0.581267	0	-0.302546	-0	0.619176	-0
1.11667	0	0	0	-0.000766262	0	6.82114e-05	0	0	0	85.1041	209.952	-13.6182	0.5726	0	-0.299402	0	-2.4267	0
1.125	0	0	0	-0.000766263	0	6.82087e-05	0	0	0	61.0908	135.128	-7.65217	0.569131	0	-0.294596	0	-4.79278	0
1.13333	0	0	0	-0.000766265	0	6.8206e-05	0	0	0	40.1829	78.4101	-3.60418	0.576777	0	-0.286266	0	-5.56036	0
1.14167	0	0	0	-0.000766266	0	6.82033e-05	0	0	0	23.3627	40.8774	-1.10034	0.611991	0	-0.262862	0	-5.22113	0
1.15	0	0	0	-0.000766267	0	6.82005e-05	0	0	0	11.4796	20.1931	0.526703	0.694181	0	-0.200999	0	-4.5967	0
1.15833	0	0	0	-0.000766269	0	6.81978e-05	0	0	0	5.03241	10.398	1.31339	-0.000766246	0	6.81603e-05	0	0	0
1.16667	0	0	0	-0.00076627	0	6.8195e-05	0	0	0	0	0	0	-0.000766247	0	6.81566e-05	0	0	0
1.175	0	0	0	-0.000766271	0	6.81921e-05	0	0	0	0	0	0	-0.000766248	0	6.81529e-05	0	0	0
1.18333	0	0	0	-0.000766273	0	6.81893e-05	0	0	0	0	0	0	-0.000766249	0	6.81492e-05	0	0	0
1.19167	0	0	0	-0.000766274	0	6.81865e-05	0	0	0	0	0	0	-0.00076625	0	6.81454e-05	0	0	0
1.2	0	0	0	-0.000766276	0	6.81836e-05	0	0	0	0	0	0	-0.000766251	0	6.81417e-05	0	0	0
1.20833	0	0	0	-0.000766277	0	6.81807e-05	0	0	0	0	0	0	-0.000766251	0	6.81379e-05	0	0	0
1.21667	0	0	0	-0.000766278	0	6.81778e-05	0	0	0	0	0	0	-0.000766252	0	6.8134e-05	0	0	0
1.225	0	0	0	-0.00076628	0	6.81748e-05	0	0	0	0	0	0	-0.000766253	0	6.81302e-05	0	0	0
1.23333	0	0	0	-0.000766281	0	6.81719e-05	0	0	0	0	0	0	-0.000766254	0	6.81263e-05	0	0	0
